<svg xmlns="http://www.w3.org/2000/svg" width="30" height="30" viewBox="0 0 30 30">
  <path id="instagram_logo_icon" data-name="instagram logo_icon" d="M24.487,7.163a1.736,1.736,0,1,1-1.736-1.736h0a1.736,1.736,0,0,1,1.736,1.735ZM30,15v.022l-.1,6.293A8.685,8.685,0,0,1,21.314,29.9L15,30h-.022l-6.293-.1A8.685,8.685,0,0,1,.1,21.316L0,15v-.022L.1,8.685A8.684,8.684,0,0,1,8.685.1L15,0h.022l6.293.1A8.685,8.685,0,0,1,29.9,8.684L30,15Zm-2.794,0-.1-6.271a5.9,5.9,0,0,0-5.836-5.836L15,2.794l-6.271.1A5.9,5.9,0,0,0,2.892,8.728L2.794,15l.1,6.271a5.9,5.9,0,0,0,5.837,5.837l6.271.1,6.271-.1a5.9,5.9,0,0,0,5.836-5.837l.1-6.271Zm-4.5,0A7.7,7.7,0,1,1,15,7.3h0A7.712,7.712,0,0,1,22.7,15Zm-2.794,0A4.909,4.909,0,1,0,15,19.909h0A4.915,4.915,0,0,0,19.909,15Z"/>
</svg>
