<svg xmlns="http://www.w3.org/2000/svg" width="39.011" height="31" viewBox="0 0 39.011 31">
  <path id="Menu_Icon" data-name="Menu Icon" d="M38.489,81.135H.522A.522.522,0,0,1,0,80.612v-2.09A.522.522,0,0,1,.522,78H38.489a.522.522,0,0,1,.522.522v2.09A.522.522,0,0,1,38.489,81.135Zm0,13.933H.522A.522.522,0,0,1,0,94.545v-2.09a.522.522,0,0,1,.522-.522H38.489a.522.522,0,0,1,.522.522v2.09A.522.522,0,0,1,38.489,95.067Zm0,13.933H.522A.522.522,0,0,1,0,108.478v-2.09a.522.522,0,0,1,.522-.522H38.489a.522.522,0,0,1,.522.522v2.09A.522.522,0,0,1,38.489,109Z" transform="translate(0 -78)"/>
</svg>
