<svg id="sell_better_logo" xmlns="http://www.w3.org/2000/svg" width="866" height="240.42" viewBox="0 0 866 240.42">
  <g id="Group_89" data-name="Group 89">
    <g id="Group_87" data-name="Group 87" transform="translate(0 0.128)">
      <path id="Path_181" data-name="Path 181" d="M67.63,77.523l-22.415-5.38c-7.3-1.665-12.553-4.1-15.5-7.045a9.609,9.609,0,0,1-2.69-7.429A12.741,12.741,0,0,1,32.15,47.55c3.458-2.946,8.966-4.483,16.523-4.483,8.07,0,14.218,1.537,18.06,4.739s6.02,7.557,6.661,13.705l.256,2.049H96.578l-.128-2.306c-.384-11.4-4.739-20.75-12.809-27.923S64.172,22.7,49.7,22.7a59.042,59.042,0,0,0-24.337,4.867A35.892,35.892,0,0,0,9.222,41.658a36.908,36.908,0,0,0-5.38,18.957c0,8.326,2.562,15.371,7.557,20.878s14.09,9.735,27.539,13.065l17.42,4.227c7.429,1.793,12.937,3.971,16.139,6.4a9.592,9.592,0,0,1,4.227,8.2c0,4.355-1.921,8.07-6.02,11.272s-10.631,5.123-19.469,5.123c-6.789,0-12.3-1.025-16.4-3.074a18.627,18.627,0,0,1-8.582-7.429,26.467,26.467,0,0,1-3.2-11.656l-.128-2.049H0l.128,2.434C.64,115.949,2.177,122.866,5,128.118a37.544,37.544,0,0,0,17.42,16.523c7.685,3.715,17.164,5.508,28.435,5.508,16.779,0,29.332-4.227,37.273-12.424s12.04-17.8,12.04-28.435A28.335,28.335,0,0,0,93.12,89.563C88.38,84.44,80.183,80.469,67.63,77.523Z" transform="translate(0 6.246)" fill="#000000"/>
      <path id="Path_182" data-name="Path 182" d="M195.409.1H171.2V140.356a17.028,17.028,0,0,0,17.036,17.036h25.746V136H195.409V.1Z" transform="translate(48.086 -0.1)" fill="#000000"/>
      <path id="Path_183" data-name="Path 183" d="M231.709.1H207.5V140.356a17.028,17.028,0,0,0,17.036,17.036h25.746V136H231.709V.1Z" transform="translate(58.282 -0.1)" fill="#000000"/>
      <path id="Path_184" data-name="Path 184" d="M186.454,90.428a16.964,16.964,0,0,0,4.739-12.553,93.477,93.477,0,0,0-1.153-12.04,61.28,61.28,0,0,0-9.478-23.184,45.965,45.965,0,0,0-18.829-15.371,60.165,60.165,0,0,0-25.105-5.38A53.553,53.553,0,0,0,95.9,39.578C85.009,51.234,79.5,67.245,79.5,87.354a80.8,80.8,0,0,0,6.532,32.919A49.745,49.745,0,0,0,106.015,143.2a57.438,57.438,0,0,0,29.972,7.941,57.169,57.169,0,0,0,26.77-6.276,51.632,51.632,0,0,0,18.829-16.4c3.33-4.867,6.148-11.784,8.326-20.238l.64-2.818H166.6l-.64,1.409c-3.074,8.07-7.045,13.833-11.784,17.036s-10.759,4.867-18.188,4.867a30.869,30.869,0,0,1-16.4-4.355,26.248,26.248,0,0,1-10.5-12.168,49.206,49.206,0,0,1-3.715-16.651h68.4a15.918,15.918,0,0,0,12.681-5.123ZM166.6,75.058H105.887c1.153-9.607,4.483-17.292,9.991-22.543a28.6,28.6,0,0,1,21.263-8.71c8.71,0,15.5,2.69,21.006,8.326,4.739,5.252,7.685,12.937,8.454,22.928Z" transform="translate(22.328 6.021)" fill="#000000"/>
    </g>
    <g id="Group_88" data-name="Group 88" transform="translate(356.211)">
      <path id="Path_185" data-name="Path 185" d="M667.581,21.7H641.836A17.028,17.028,0,0,0,624.8,38.736V151.068h24.209V43.091h18.573V21.7Z" transform="translate(-180.72 6.095)" fill="#000000"/>
      <path id="Path_186" data-name="Path 186" d="M360.46,36.193a50.408,50.408,0,0,0-25.617-7.045A42.974,42.974,0,0,0,311.787,35.3a40.03,40.03,0,0,0-9.35,8.07V.2H278.1V157.107h22.672V143.4a35.976,35.976,0,0,0,8.454,7.429,44.545,44.545,0,0,0,23.568,6.276,46.358,46.358,0,0,0,36.249-16.267c10.759-12.424,16.4-29.332,16.4-50.21,0-12.681-2.049-23.7-6.276-33.047S368.53,40.8,360.46,36.193Zm0,55.334c0,15.242-2.946,26.514-8.582,33.3s-12.681,10.119-21.134,10.119a27.321,27.321,0,0,1-21.9-9.991c-5.636-6.789-8.582-17.548-8.582-32.15s3.074-24.849,8.966-31.766a28.134,28.134,0,0,1,22.543-10.119A25.43,25.43,0,0,1,352.263,60.4c5.508,6.532,8.326,16.908,8.2,31.125Z" transform="translate(-278.1 0.056)" fill="#000000"/>
      <path id="Path_187" data-name="Path 187" d="M471.382,90.328a16.964,16.964,0,0,0,4.739-12.553,93.479,93.479,0,0,0-1.153-12.04,61.281,61.281,0,0,0-9.479-23.184,45.965,45.965,0,0,0-18.829-15.371,60.165,60.165,0,0,0-25.105-5.38A54.018,54.018,0,0,0,380.7,39.478c-10.887,11.656-16.4,27.8-16.4,47.777a80.8,80.8,0,0,0,6.532,32.918A49.035,49.035,0,0,0,390.815,143.1a57.57,57.57,0,0,0,30.1,7.941,56.808,56.808,0,0,0,26.77-6.276A52.5,52.5,0,0,0,466.515,128.5c3.33-5,6.148-11.784,8.326-20.238l.64-2.818H451.529l-.64,1.409c-3.2,8.07-7.045,13.833-11.656,17.036s-10.759,5-18.188,5a30.869,30.869,0,0,1-16.4-4.355,26.248,26.248,0,0,1-10.5-12.168,49.206,49.206,0,0,1-3.715-16.651h68.4a16.93,16.93,0,0,0,12.553-5.38ZM451.657,74.958H390.815c1.153-9.607,4.483-17.164,9.863-22.543a28.886,28.886,0,0,1,21.263-8.582c8.71,0,15.5,2.69,20.878,8.2,5.124,5.252,8.07,12.937,8.838,22.928Z" transform="translate(-253.89 6.121)" fill="#000000"/>
      <path id="Path_188" data-name="Path 188" d="M639.854,90.328a16.964,16.964,0,0,0,4.739-12.553,93.468,93.468,0,0,0-1.153-12.04,61.28,61.28,0,0,0-9.479-23.184,45.965,45.965,0,0,0-18.829-15.371,60.6,60.6,0,0,0-25.105-5.38A53.553,53.553,0,0,0,549.3,39.478c-10.887,11.656-16.4,27.8-16.4,47.777a80.8,80.8,0,0,0,6.532,32.918A49.745,49.745,0,0,0,559.415,143.1a57.57,57.57,0,0,0,30.1,7.941,56.808,56.808,0,0,0,26.77-6.276A53.6,53.6,0,0,0,635.115,128.5c3.33-5,6.148-11.784,8.326-20.238l.64-2.818H620l-.64,1.409c-3.2,8.07-7.045,13.833-11.784,17.036s-10.759,5-18.188,5a30.869,30.869,0,0,1-16.4-4.355,26.248,26.248,0,0,1-10.5-12.168,49.206,49.206,0,0,1-3.715-16.651h68.271a17.089,17.089,0,0,0,12.809-5.38ZM620.129,75.086H559.287c1.153-9.607,4.483-17.164,9.863-22.543a28.49,28.49,0,0,1,21.263-8.582c8.71,0,15.5,2.69,20.878,8.2,5.123,5.123,8.07,12.809,8.838,22.928Z" transform="translate(-206.534 6.121)" fill="#000000"/>
      <path id="Path_189" data-name="Path 189" d="M542.288,48.673h18.573V28.179H542.288V0h-7.173A17.028,17.028,0,0,0,518.08,17.036V28.179H488.235V0H481.19a17.028,17.028,0,0,0-17.036,17.036V28.179H448.4V48.673h15.755V140a17.111,17.111,0,0,0,17.036,17.036h25.746V135.645H488.363V48.673H518.08v91.455a17.111,17.111,0,0,0,17.036,17.036h25.746V135.773H542.288v-87.1Z" transform="translate(-230.267)" fill="#000000"/>
    </g>
    <path id="Path_190" data-name="Path 190" d="M667.9,99.9a14.6,14.6,0,1,0,14.6,14.6A14.6,14.6,0,0,0,667.9,99.9Z" transform="translate(183.496 28.059)" fill="#000000"/>
  </g>
  <g id="Group_93" data-name="Group 93" transform="translate(426.66 191.205)">
    <g id="Group_90" data-name="Group 90" transform="translate(0 0.67)">
      <path id="Path_191" data-name="Path 191" d="M333.1,197.577V149.8h16.4c5.38,0,9.479,1.153,12.3,3.2s4.227,5.38,4.227,9.735a10.958,10.958,0,0,1-1.793,5.892,12.38,12.38,0,0,1-5.124,4.1,10.089,10.089,0,0,1,6.02,3.971,11.255,11.255,0,0,1,2.049,6.917,12.885,12.885,0,0,1-4.355,10.375c-2.818,2.434-6.917,3.586-12.424,3.586Zm8.2-27.667h8.2a9.068,9.068,0,0,0,6.02-1.793A7.229,7.229,0,0,0,355.772,158v-.128a10,10,0,0,0-6.276-1.537h-8.07L341.3,169.91Zm0,6.148v14.986h9.222a9.039,9.039,0,0,0,6.148-1.921,6.629,6.629,0,0,0,2.178-5.38c0-5-2.562-7.557-7.557-7.557l-9.991-.128Z" transform="translate(-333.1 -149.8)" fill="#000000"/>
      <path id="Path_192" data-name="Path 192" d="M385.21,172.443,396.225,149.9h9.222L389.437,180v17.676h-8.326V180L365.1,149.9h9.222l10.887,22.543Z" transform="translate(-324.112 -149.772)" fill="#000000"/>
    </g>
    <g id="Group_91" data-name="Group 91" transform="translate(109.771 0.67)">
      <path id="Path_193" data-name="Path 193" d="M441.856,149.8h8.2v33.559a13.936,13.936,0,0,1-4.355,10.887,15.3,15.3,0,0,1-11.272,3.971c-5,0-8.838-1.281-11.528-3.715s-4.1-6.02-4.1-10.5H427a8.084,8.084,0,0,0,1.921,5.764,7.305,7.305,0,0,0,5.508,1.921,7.055,7.055,0,0,0,5.38-2.177,8.649,8.649,0,0,0,1.921-6.148l.128-33.559Z" transform="translate(-418.8 -149.8)" fill="#000000"/>
      <path id="Path_194" data-name="Path 194" d="M454.6,197.577V149.8H471c5.38,0,9.479,1.153,12.3,3.2s4.227,5.38,4.227,9.735a10.958,10.958,0,0,1-1.793,5.892,12.38,12.38,0,0,1-5.124,4.1,10.089,10.089,0,0,1,6.02,3.971,11.255,11.255,0,0,1,2.049,6.917,12.885,12.885,0,0,1-4.355,10.375c-2.818,2.434-6.917,3.586-12.424,3.586Zm8.326-27.667h8.2a9.068,9.068,0,0,0,6.02-1.793,7.076,7.076,0,0,0,.256-9.991.125.125,0,0,0-.128-.128A10,10,0,0,0,471,156.461h-8.07V169.91Zm0,6.148v14.986h9.222a9.04,9.04,0,0,0,6.148-1.921,6.629,6.629,0,0,0,2.177-5.38c0-5-2.562-7.557-7.557-7.557l-9.991-.128Z" transform="translate(-408.745 -149.8)" fill="#000000"/>
    </g>
    <g id="Group_92" data-name="Group 92" transform="translate(222.36)">
      <path id="Path_195" data-name="Path 195" d="M534.111,185.427a5.842,5.842,0,0,0-2.177-4.867,29.308,29.308,0,0,0-7.941-3.458,41.331,41.331,0,0,1-9.222-3.843q-6.532-4.035-6.532-10.759a11.536,11.536,0,0,1,4.739-9.478,19.028,19.028,0,0,1,12.168-3.715,22.7,22.7,0,0,1,8.838,1.793,14.422,14.422,0,0,1,6.148,5.252,12.163,12.163,0,0,1,2.177,7.557h-8.326a7.814,7.814,0,0,0-2.306-5.892,9.031,9.031,0,0,0-6.661-2.049,9.776,9.776,0,0,0-6.276,1.793,5.95,5.95,0,0,0-2.306,4.867,5,5,0,0,0,2.434,4.355,28.454,28.454,0,0,0,8.07,3.458,42.637,42.637,0,0,1,8.966,3.715,13.979,13.979,0,0,1,5,4.867,12.17,12.17,0,0,1,1.537,6.4,11.093,11.093,0,0,1-4.611,9.478c-3.074,2.306-7.173,3.586-12.424,3.586a23.66,23.66,0,0,1-9.479-1.921,17.087,17.087,0,0,1-6.789-5.252,13.14,13.14,0,0,1-2.434-7.813h8.326a7.731,7.731,0,0,0,2.69,6.276c1.793,1.537,4.355,2.177,7.685,2.177a10.748,10.748,0,0,0,6.532-1.793,5.449,5.449,0,0,0,2.177-4.739Z" transform="translate(-506.7 -149.277)" fill="#000000"/>
      <path id="Path_196" data-name="Path 196" d="M571.869,186.533H553.424l-3.843,11.144H541L559.06,149.9h7.429l18.06,47.777h-8.71l-3.971-11.144Zm-16.139-6.789h13.833l-6.917-19.854-6.917,19.854Z" transform="translate(-497.066 -149.102)" fill="#000000"/>
      <path id="Path_197" data-name="Path 197" d="M591.326,191.016h21.647v6.661H583V149.9h8.326v41.116Z" transform="translate(-485.269 -149.102)" fill="#000000"/>
      <path id="Path_198" data-name="Path 198" d="M643.323,176.286h-19.6v14.73h22.928v6.661H615.4V149.9h31v6.661H623.726v13.193h19.6Z" transform="translate(-476.169 -149.102)" fill="#000000"/>
      <path id="Path_199" data-name="Path 199" d="M674.411,185.427a5.842,5.842,0,0,0-2.177-4.867,29.308,29.308,0,0,0-7.941-3.458,41.331,41.331,0,0,1-9.222-3.843q-6.533-4.035-6.532-10.759a11.536,11.536,0,0,1,4.739-9.478,19.028,19.028,0,0,1,12.168-3.715,22.7,22.7,0,0,1,8.838,1.793,14.422,14.422,0,0,1,6.148,5.252,12.4,12.4,0,0,1,2.177,7.557h-8.2a7.814,7.814,0,0,0-2.306-5.892,9.031,9.031,0,0,0-6.661-2.049,10.37,10.37,0,0,0-6.4,1.793,5.95,5.95,0,0,0-2.306,4.867,5,5,0,0,0,2.434,4.355,28.453,28.453,0,0,0,8.07,3.458,42.637,42.637,0,0,1,8.966,3.715,13.98,13.98,0,0,1,5,4.867,12.17,12.17,0,0,1,1.537,6.4,11.093,11.093,0,0,1-4.611,9.478c-3.074,2.306-7.173,3.586-12.425,3.586a23.66,23.66,0,0,1-9.478-1.921,17.087,17.087,0,0,1-6.789-5.252A13.14,13.14,0,0,1,647,183.506h8.326a7.731,7.731,0,0,0,2.69,6.276c1.793,1.537,4.355,2.177,7.685,2.177a10.748,10.748,0,0,0,6.532-1.793,5.449,5.449,0,0,0,2.177-4.739Z" transform="translate(-467.293 -149.277)" fill="#000000"/>
    </g>
  </g>
</svg>
