<svg id="sell_better_logo" xmlns="http://www.w3.org/2000/svg" width="198" height="54.969" viewBox="0 0 198 54.969">
  <g id="Group_89" data-name="Group 89">
    <g id="Group_87" data-name="Group 87" transform="translate(0 0.029)">
      <path id="Path_181" data-name="Path 181" d="M15.463,35.23,10.338,34A7.4,7.4,0,0,1,6.794,32.39a2.2,2.2,0,0,1-.615-1.7,2.913,2.913,0,0,1,1.171-2.314,5.767,5.767,0,0,1,3.778-1.025,6.446,6.446,0,0,1,4.129,1.084,4.41,4.41,0,0,1,1.523,3.134l.059.469h5.242l-.029-.527a8.6,8.6,0,0,0-2.929-6.384c-1.845-1.64-4.451-2.431-7.761-2.431A13.5,13.5,0,0,0,5.8,23.809a8.206,8.206,0,0,0-3.69,3.221,8.439,8.439,0,0,0-1.23,4.334,6.879,6.879,0,0,0,1.728,4.774c1.142,1.259,3.221,2.226,6.3,2.987l3.983.966a10.491,10.491,0,0,1,3.69,1.464,2.193,2.193,0,0,1,.966,1.874,3.163,3.163,0,0,1-1.376,2.577,7.229,7.229,0,0,1-4.451,1.171,8.471,8.471,0,0,1-3.749-.7A4.259,4.259,0,0,1,6,44.778a6.051,6.051,0,0,1-.732-2.665l-.029-.469H0l.029.556a11.414,11.414,0,0,0,1.113,4.6,8.584,8.584,0,0,0,3.983,3.778,14.879,14.879,0,0,0,6.5,1.259c3.836,0,6.706-.966,8.522-2.841a9.147,9.147,0,0,0,2.753-6.5,6.478,6.478,0,0,0-1.611-4.51c-1.084-1.171-2.958-2.079-5.828-2.753Z" transform="translate(0 -16.078)"/>
      <path id="Path_182" data-name="Path 182" d="M176.735.1H171.2V32.168a3.893,3.893,0,0,0,3.895,3.895h5.886V31.172h-4.246V.1Z" transform="translate(-121.063 -0.1)"/>
      <path id="Path_183" data-name="Path 183" d="M213.035.1H207.5V32.168a3.893,3.893,0,0,0,3.895,3.895h5.886V31.172h-4.246V.1Z" transform="translate(-146.732 -0.1)"/>
      <path id="Path_184" data-name="Path 184" d="M103.951,37.564a3.879,3.879,0,0,0,1.084-2.87,21.373,21.373,0,0,0-.264-2.753,14.011,14.011,0,0,0-2.167-5.3,10.509,10.509,0,0,0-4.3-3.514,13.756,13.756,0,0,0-5.74-1.23,12.244,12.244,0,0,0-9.313,4.041C80.756,28.6,79.5,32.263,79.5,36.861a18.475,18.475,0,0,0,1.494,7.526,11.374,11.374,0,0,0,4.569,5.242,13.807,13.807,0,0,0,12.974.381,11.805,11.805,0,0,0,4.3-3.749,14.976,14.976,0,0,0,1.9-4.627l.146-.644H99.411l-.146.322a7.987,7.987,0,0,1-2.694,3.895,7.26,7.26,0,0,1-4.159,1.113,7.058,7.058,0,0,1-3.749-1,6,6,0,0,1-2.4-2.782,11.25,11.25,0,0,1-.849-3.807h15.639a3.639,3.639,0,0,0,2.9-1.171Zm-4.539-3.514H85.53A8.276,8.276,0,0,1,87.814,28.9,6.539,6.539,0,0,1,92.676,26.9a6.332,6.332,0,0,1,4.8,1.9,8.641,8.641,0,0,1,1.933,5.242Z" transform="translate(-56.215 -15.512)"/>
    </g>
    <g id="Group_88" data-name="Group 88" transform="translate(81.443)">
      <path id="Path_185" data-name="Path 185" d="M634.581,21.7H628.7a3.893,3.893,0,0,0-3.895,3.895V51.278h5.535V26.591h4.246V21.7Z" transform="translate(-523.267 -15.345)"/>
      <path id="Path_186" data-name="Path 186" d="M296.931,8.429a11.525,11.525,0,0,0-5.857-1.611A9.825,9.825,0,0,0,285.8,8.224a9.152,9.152,0,0,0-2.138,1.845V.2H278.1V36.075h5.184V32.941a8.225,8.225,0,0,0,1.933,1.7,10.185,10.185,0,0,0,5.389,1.435,10.6,10.6,0,0,0,8.288-3.719c2.46-2.841,3.749-6.706,3.749-11.48a18.214,18.214,0,0,0-1.435-7.556,10.484,10.484,0,0,0-4.276-4.891Zm0,12.651c0,3.485-.674,6.062-1.962,7.614a6.015,6.015,0,0,1-4.832,2.314,6.246,6.246,0,0,1-5.008-2.284c-1.289-1.552-1.962-4.012-1.962-7.351s.7-5.681,2.05-7.263a6.432,6.432,0,0,1,5.154-2.314,5.814,5.814,0,0,1,4.686,2.167c1.259,1.494,1.9,3.866,1.874,7.116Z" transform="translate(-278.1 -0.141)"/>
      <path id="Path_187" data-name="Path 187" d="M388.78,37.464a3.879,3.879,0,0,0,1.084-2.87,21.375,21.375,0,0,0-.264-2.753,14.011,14.011,0,0,0-2.167-5.3,10.51,10.51,0,0,0-4.305-3.514,13.756,13.756,0,0,0-5.74-1.23,12.351,12.351,0,0,0-9.342,4.041c-2.489,2.665-3.749,6.355-3.749,10.924a18.474,18.474,0,0,0,1.494,7.526,11.211,11.211,0,0,0,4.569,5.242,13.163,13.163,0,0,0,6.882,1.816,12.988,12.988,0,0,0,6.121-1.435,12,12,0,0,0,4.3-3.719,15.29,15.29,0,0,0,1.9-4.627l.146-.644h-5.476l-.146.322a8.361,8.361,0,0,1-2.665,3.895,7.2,7.2,0,0,1-4.159,1.142,7.058,7.058,0,0,1-3.749-1,6,6,0,0,1-2.4-2.782,11.249,11.249,0,0,1-.849-3.807H385.91a3.871,3.871,0,0,0,2.87-1.23Zm-4.51-3.514H370.359a8.494,8.494,0,0,1,2.255-5.154,6.6,6.6,0,0,1,4.861-1.962,6.309,6.309,0,0,1,4.774,1.874,8.168,8.168,0,0,1,2.021,5.242Z" transform="translate(-339.053 -15.412)"/>
      <path id="Path_188" data-name="Path 188" d="M557.351,37.464a3.879,3.879,0,0,0,1.084-2.87,21.386,21.386,0,0,0-.264-2.753A14.011,14.011,0,0,0,556,26.54a10.509,10.509,0,0,0-4.3-3.514,13.855,13.855,0,0,0-5.74-1.23,12.244,12.244,0,0,0-9.313,4.041c-2.489,2.665-3.749,6.355-3.749,10.924a18.476,18.476,0,0,0,1.494,7.526,11.374,11.374,0,0,0,4.569,5.242,13.163,13.163,0,0,0,6.882,1.816,12.989,12.989,0,0,0,6.121-1.435,12.254,12.254,0,0,0,4.3-3.719,15.29,15.29,0,0,0,1.9-4.627l.146-.644h-5.506l-.146.322a8.182,8.182,0,0,1-2.694,3.895,7.265,7.265,0,0,1-4.159,1.142,7.058,7.058,0,0,1-3.749-1,6,6,0,0,1-2.4-2.782,11.251,11.251,0,0,1-.849-3.807h15.609a3.907,3.907,0,0,0,2.929-1.23Zm-4.51-3.485H538.93a8.493,8.493,0,0,1,2.255-5.154,6.514,6.514,0,0,1,4.861-1.962,6.309,6.309,0,0,1,4.774,1.874,8.038,8.038,0,0,1,2.021,5.242Z" transform="translate(-458.277 -15.412)"/>
      <path id="Path_189" data-name="Path 189" d="M469.866,11.129h4.246V6.443h-4.246V0h-1.64a3.893,3.893,0,0,0-3.895,3.895V6.443h-6.824V0H455.9A3.893,3.893,0,0,0,452,3.895V6.443h-3.6v4.686H452V32.009A3.912,3.912,0,0,0,455.9,35.9h5.886V31.013h-4.246V11.129h6.794v20.91a3.912,3.912,0,0,0,3.895,3.895h5.886V31.043h-4.246V11.129Z" transform="translate(-398.527)"/>
    </g>
    <path id="Path_190" data-name="Path 190" d="M656.639,99.9a3.339,3.339,0,1,0,3.339,3.339A3.337,3.337,0,0,0,656.639,99.9Z" transform="translate(-461.977 -70.644)"/>
  </g>
  <g id="Group_93" data-name="Group 93" transform="translate(97.55 43.717)">
    <g id="Group_90" data-name="Group 90" transform="translate(0 0.153)">
      <path id="Path_191" data-name="Path 191" d="M333.1,160.724V149.8h3.749a4.734,4.734,0,0,1,2.811.732,2.59,2.59,0,0,1,.966,2.226,2.505,2.505,0,0,1-.41,1.347,2.83,2.83,0,0,1-1.171.937,2.307,2.307,0,0,1,1.376.908,2.573,2.573,0,0,1,.469,1.581,2.946,2.946,0,0,1-1,2.372,4.217,4.217,0,0,1-2.841.82Zm1.874-6.326h1.874a2.073,2.073,0,0,0,1.376-.41,1.653,1.653,0,0,0,.059-2.314v-.029a2.287,2.287,0,0,0-1.435-.351H335l-.029,3.1Zm0,1.406v3.426h2.109a2.067,2.067,0,0,0,1.406-.439,1.516,1.516,0,0,0,.5-1.23,1.535,1.535,0,0,0-1.728-1.728l-2.284-.029Z" transform="translate(-333.1 -149.8)"/>
      <path id="Path_192" data-name="Path 192" d="M369.7,155.054l2.519-5.154h2.109l-3.661,6.882v4.041h-1.9v-4.041L365.1,149.9h2.109l2.489,5.154Z" transform="translate(-355.729 -149.871)"/>
    </g>
    <g id="Group_91" data-name="Group 91" transform="translate(25.098 0.153)">
      <path id="Path_193" data-name="Path 193" d="M424.071,149.8h1.874v7.673a3.186,3.186,0,0,1-1,2.489,3.5,3.5,0,0,1-2.577.908,3.8,3.8,0,0,1-2.636-.849,3.109,3.109,0,0,1-.937-2.4h1.874a1.848,1.848,0,0,0,.439,1.318,1.67,1.67,0,0,0,1.259.439,1.613,1.613,0,0,0,1.23-.5,1.978,1.978,0,0,0,.439-1.406l.029-7.673Z" transform="translate(-418.8 -149.8)"/>
      <path id="Path_194" data-name="Path 194" d="M454.6,160.724V149.8h3.749a4.734,4.734,0,0,1,2.811.732,2.59,2.59,0,0,1,.966,2.226,2.505,2.505,0,0,1-.41,1.347,2.83,2.83,0,0,1-1.171.937,2.307,2.307,0,0,1,1.376.908,2.573,2.573,0,0,1,.469,1.581,2.946,2.946,0,0,1-1,2.372,4.217,4.217,0,0,1-2.841.82Zm1.9-6.326h1.874a2.073,2.073,0,0,0,1.376-.41,1.618,1.618,0,0,0,.059-2.284.029.029,0,0,0-.029-.029,2.287,2.287,0,0,0-1.435-.351H456.5V154.4Zm0,1.406v3.426h2.109a2.067,2.067,0,0,0,1.406-.439,1.516,1.516,0,0,0,.5-1.23,1.535,1.535,0,0,0-1.728-1.728L456.5,155.8Z" transform="translate(-444.116 -149.8)"/>
    </g>
    <g id="Group_92" data-name="Group 92" transform="translate(50.84)">
      <path id="Path_195" data-name="Path 195" d="M512.967,157.542a1.336,1.336,0,0,0-.5-1.113,6.7,6.7,0,0,0-1.816-.791,9.45,9.45,0,0,1-2.109-.879,2.79,2.79,0,0,1-1.494-2.46,2.638,2.638,0,0,1,1.084-2.167,4.35,4.35,0,0,1,2.782-.849,5.19,5.19,0,0,1,2.021.41,3.3,3.3,0,0,1,1.406,1.2,2.781,2.781,0,0,1,.5,1.728h-1.9a1.787,1.787,0,0,0-.527-1.347,2.065,2.065,0,0,0-1.523-.469,2.235,2.235,0,0,0-1.435.41,1.36,1.36,0,0,0-.527,1.113,1.142,1.142,0,0,0,.556,1,6.506,6.506,0,0,0,1.845.791,9.748,9.748,0,0,1,2.05.849,3.2,3.2,0,0,1,1.142,1.113,2.783,2.783,0,0,1,.351,1.464,2.536,2.536,0,0,1-1.054,2.167,4.611,4.611,0,0,1-2.841.82,5.41,5.41,0,0,1-2.167-.439,3.907,3.907,0,0,1-1.552-1.2,3,3,0,0,1-.556-1.786h1.9a1.768,1.768,0,0,0,.615,1.435,2.62,2.62,0,0,0,1.757.5,2.457,2.457,0,0,0,1.494-.41,1.246,1.246,0,0,0,.5-1.084Z" transform="translate(-506.7 -149.277)"/>
      <path id="Path_196" data-name="Path 196" d="M548.058,158.276h-4.217l-.879,2.548H541l4.129-10.924h1.7l4.129,10.924h-1.991l-.908-2.548Zm-3.69-1.552h3.163l-1.581-4.539-1.581,4.539Z" transform="translate(-530.955 -149.717)"/>
      <path id="Path_197" data-name="Path 197" d="M584.9,159.3h4.949v1.523H583V149.9h1.9v9.4Z" transform="translate(-560.655 -149.717)"/>
      <path id="Path_198" data-name="Path 198" d="M621.784,155.933H617.3V159.3h5.242v1.523H615.4V149.9h7.087v1.523H617.3v3.016h4.481Z" transform="translate(-583.567 -149.717)"/>
      <path id="Path_199" data-name="Path 199" d="M653.267,157.542a1.335,1.335,0,0,0-.5-1.113,6.7,6.7,0,0,0-1.816-.791,9.451,9.451,0,0,1-2.109-.879,2.79,2.79,0,0,1-1.494-2.46,2.638,2.638,0,0,1,1.084-2.167,4.35,4.35,0,0,1,2.782-.849,5.19,5.19,0,0,1,2.021.41,3.3,3.3,0,0,1,1.406,1.2,2.836,2.836,0,0,1,.5,1.728h-1.874a1.786,1.786,0,0,0-.527-1.347,2.065,2.065,0,0,0-1.523-.469,2.371,2.371,0,0,0-1.464.41,1.36,1.36,0,0,0-.527,1.113,1.142,1.142,0,0,0,.556,1,6.5,6.5,0,0,0,1.845.791,9.749,9.749,0,0,1,2.05.849,3.2,3.2,0,0,1,1.142,1.113,2.783,2.783,0,0,1,.351,1.464,2.536,2.536,0,0,1-1.054,2.167,4.612,4.612,0,0,1-2.841.82,5.409,5.409,0,0,1-2.167-.439,3.906,3.906,0,0,1-1.552-1.2A3,3,0,0,1,647,157.1h1.9a1.767,1.767,0,0,0,.615,1.435,2.62,2.62,0,0,0,1.757.5,2.457,2.457,0,0,0,1.494-.41,1.246,1.246,0,0,0,.5-1.084Z" transform="translate(-605.912 -149.277)"/>
    </g>
  </g>
</svg>
