<svg xmlns="http://www.w3.org/2000/svg" width="24.849" height="25" viewBox="0 0 24.849 25">
  <path id="TikTok" d="M22.992,0H1.857A1.811,1.811,0,0,0,0,1.807V23.193A1.811,1.811,0,0,0,1.857,25H22.992a1.843,1.843,0,0,0,1.857-1.807V1.807A1.876,1.876,0,0,0,22.992,0ZM19.578,10.873h-.01a2.832,2.832,0,0,1-.412.025,4.483,4.483,0,0,1-3.745-2.023v6.893a5.1,5.1,0,1,1-5.1-5.1c.105,0,.211.01.316.015V13.2c-.105-.01-.206-.03-.316-.03a2.6,2.6,0,1,0,0,5.2,2.664,2.664,0,0,0,2.706-2.57l.025-11.712h2.4a4.478,4.478,0,0,0,4.127,4v2.791Z"/>
</svg>
